<svg width="87" height="24" viewBox="0 0 87 24" fill="none" xmlns="http://www.w3.org/2000/svg">
<path d="M2.89453 15.1419V22.8581H5.50191C5.99146 22.8581 6.41715 22.8041 6.75771 22.696C7.09826 22.5879 7.37496 22.4258 7.58781 22.2313C7.80066 22.0368 7.94965 21.799 8.04543 21.5289C8.13057 21.2695 8.18378 20.9777 8.18378 20.6751C8.18378 20.4806 8.15186 20.2969 8.10929 20.1023C8.06672 19.9078 7.98158 19.7349 7.87516 19.562C7.76873 19.3999 7.61974 19.2486 7.43882 19.1189C7.2579 18.9892 7.03441 18.8703 6.76835 18.7731C7.1834 18.6002 7.48139 18.3624 7.66231 18.0706C7.83259 17.7896 7.92837 17.4438 7.92837 17.0548C7.92837 16.7954 7.8858 16.5576 7.8113 16.3199C7.7368 16.0929 7.59845 15.8876 7.40689 15.7147C7.20469 15.5418 6.93863 15.4013 6.59807 15.2932C6.25752 15.1959 5.83182 15.1419 5.2997 15.1419H2.89453ZM5.39549 18.5245H3.53307V15.7147H5.27842C6.01274 15.7147 6.53422 15.8336 6.8322 16.0497C7.13019 16.2658 7.28983 16.6117 7.28983 17.0872C7.28983 17.5627 7.13019 17.9301 6.8322 18.1679C6.53422 18.4056 6.05531 18.5245 5.39549 18.5245ZM5.48062 22.2745H3.53307V19.1189H5.51255C6.21495 19.1189 6.71514 19.2594 7.03441 19.5296C7.34304 19.8105 7.50267 20.2104 7.50267 20.7291C7.50267 20.9669 7.47075 21.183 7.40689 21.3776C7.34304 21.5721 7.23661 21.7342 7.08762 21.8639C6.93863 21.9936 6.72578 22.1016 6.47036 22.1665C6.21495 22.2421 5.88503 22.2745 5.48062 22.2745Z" fill="white"/>
<path d="M12.7283 15.1419V22.8581H17.3684L17.5067 22.2421H13.3775V15.1419H12.7283Z" fill="white"/>
<path d="M24.2469 15.1419L21.2351 22.8581H21.9163L22.8209 20.5022H26.3967L27.3119 22.8581H28.0143L25.0132 15.1419H24.2469ZM26.1626 19.897H23.055L24.5981 15.866L26.1626 19.897Z" fill="white"/>
<path d="M37.9949 20.3833H37.3563C37.3031 20.6859 37.2286 20.9561 37.1222 21.2155C37.0158 21.4748 36.8774 21.691 36.6965 21.8747C36.5156 22.0692 36.2814 22.2097 36.0047 22.3178C35.728 22.4258 35.3768 22.4691 34.9724 22.4691C34.5361 22.4691 34.153 22.3934 33.8231 22.2205C33.4825 22.0476 33.2058 21.8098 32.9823 21.4964C32.7588 21.1938 32.5885 20.8264 32.4715 20.4049C32.3544 19.9835 32.3012 19.5188 32.3012 19C32.3012 18.5029 32.3544 18.0382 32.4821 17.6059C32.5992 17.1844 32.7695 16.817 33.0036 16.5036C33.2271 16.201 33.5038 15.9524 33.8337 15.7795C34.153 15.6066 34.5255 15.5202 34.9511 15.5202C35.313 15.5202 35.6216 15.5742 35.877 15.6607C36.1325 15.7579 36.3453 15.8876 36.5262 16.0605C36.7071 16.2334 36.8561 16.4496 36.9732 16.6981C37.0903 16.9575 37.186 17.2385 37.2712 17.5519L37.8884 17.4114C37.8033 17.0656 37.6862 16.7305 37.5479 16.4279C37.3989 16.1254 37.218 15.866 36.9838 15.6498C36.7497 15.4337 36.473 15.2608 36.1431 15.1311C35.8025 15.0122 35.4088 14.9474 34.9511 14.9474C34.4935 14.9474 34.0678 15.0447 33.6634 15.2176C33.259 15.3905 32.9078 15.6498 32.6098 15.9957C32.3118 16.3415 32.0671 16.763 31.8968 17.2709C31.7159 17.7788 31.6307 18.3624 31.6307 19.0216C31.6307 19.6809 31.7052 20.2644 31.8755 20.7616C32.0351 21.2587 32.2586 21.6802 32.5566 22.026C32.8546 22.3718 33.2058 22.6204 33.6102 22.7933C34.0146 22.9662 34.4722 23.0527 34.9724 23.0527C35.4407 23.0527 35.8451 22.9878 36.2069 22.8473C36.5581 22.7176 36.8561 22.5231 37.1115 22.2854C37.3563 22.0476 37.5479 21.7666 37.6969 21.4424C37.8459 21.1182 37.9417 20.7724 37.9949 20.3833Z" fill="white"/>
<path d="M42.6454 15.1419V22.8581H43.2946V19.9186L44.7526 18.4597L47.5622 22.8581H48.3497L45.2421 18.0274L48.0624 15.1419H47.2855L43.2946 19.1729V15.1419H42.6454Z" fill="white"/>
<path d="M52.6096 20.8372H51.9711C52.0137 21.2479 52.1201 21.5829 52.2904 21.8639C52.4607 22.1449 52.6735 22.3826 52.9396 22.5555C53.2056 22.7284 53.5142 22.8581 53.8654 22.9338C54.2166 23.0202 54.5998 23.0527 55.0148 23.0527C55.4618 23.0527 55.8449 22.9986 56.1855 22.8797C56.5154 22.7717 56.7921 22.6096 57.0156 22.415C57.2391 22.2205 57.4094 21.9936 57.5264 21.7342C57.6328 21.4748 57.6967 21.1938 57.6967 20.8912C57.6967 20.567 57.6435 20.2752 57.5583 20.0267C57.4732 19.7889 57.3349 19.5728 57.1539 19.3999C56.9624 19.227 56.7282 19.0757 56.4515 18.9568C56.1748 18.8487 55.8449 18.7515 55.4618 18.6758L54.3869 18.4813C54.0783 18.4272 53.8229 18.3624 53.6207 18.2759C53.4185 18.2003 53.2588 18.103 53.1418 17.9842C53.0141 17.8761 52.9289 17.7356 52.8863 17.5735C52.8331 17.4222 52.8119 17.2277 52.8119 17.0115C52.8119 16.8062 52.8438 16.6117 52.9183 16.4279C52.9821 16.2442 53.0992 16.0821 53.2695 15.9524C53.4291 15.8228 53.642 15.7147 53.908 15.639C54.1634 15.5634 54.4933 15.5202 54.8871 15.5202C55.2277 15.5202 55.5257 15.5526 55.7704 15.6174C56.0046 15.6823 56.2068 15.7795 56.3664 15.8984C56.526 16.0281 56.6537 16.1794 56.7495 16.3523C56.8453 16.5252 56.9304 16.7305 57.0049 16.9467L57.6009 16.7738C57.5371 16.5576 57.4413 16.3307 57.3349 16.1145C57.2178 15.8984 57.0582 15.6931 56.8559 15.5202C56.6431 15.3472 56.3877 15.2176 56.0684 15.1095C55.7491 15.0014 55.3447 14.9474 54.8765 14.9474C54.504 14.9474 54.1528 14.9906 53.8229 15.0771C53.493 15.1635 53.2056 15.2824 52.9608 15.4553C52.7161 15.6282 52.5245 15.8336 52.3755 16.0929C52.2265 16.3523 52.1627 16.6657 52.1627 17.0115C52.1627 17.3682 52.2052 17.6708 52.3117 17.9085C52.4181 18.1571 52.5671 18.3624 52.7693 18.5245C52.9608 18.6866 53.2056 18.8163 53.493 18.9136C53.7803 19.0216 54.1102 19.0973 54.4827 19.1621L55.4299 19.3242C55.7598 19.3891 56.0258 19.4647 56.2387 19.562C56.4409 19.6701 56.6005 19.7889 56.707 19.9186C56.8134 20.0483 56.8879 20.1996 56.9304 20.3617C56.973 20.5238 56.9943 20.6967 56.9943 20.8696C56.9943 21.0858 56.9624 21.2911 56.8985 21.4856C56.8347 21.6802 56.7282 21.8531 56.5793 21.9936C56.4303 22.1449 56.2281 22.2529 55.9726 22.3394C55.7172 22.4258 55.4086 22.4691 55.0255 22.4691C54.2805 22.4691 53.7165 22.3502 53.344 22.0908C52.9608 21.8315 52.7161 21.4208 52.6096 20.8372Z" fill="white"/>
<path d="M64.2294 15.7471V22.8581H64.8785V15.7471H67.5072V15.1419H61.5901V15.7471H64.2294Z" fill="white"/>
<path d="M72.9586 15.1419L69.9468 22.8581H70.6279L71.5325 20.5022H75.1083L76.0236 22.8581H76.726L73.7248 15.1419H72.9586ZM74.8742 19.897H71.7666L73.3098 15.866L74.8742 19.897Z" fill="white"/>
<path d="M80.9205 15.1419V22.8581H81.559V19.4863H83.2086C83.3469 19.4863 83.4853 19.4863 83.613 19.4755C83.7407 19.4647 83.8578 19.4539 83.9855 19.4323L85.5073 22.8581H86.263L84.624 19.281C85.1136 19.1081 85.4648 18.8379 85.6776 18.4921C85.8905 18.1463 86.0075 17.7356 86.0075 17.2385C86.0075 16.9791 85.965 16.7305 85.8905 16.4712C85.816 16.2226 85.6776 15.9957 85.4754 15.8011C85.2732 15.6066 84.9965 15.4553 84.6453 15.3256C84.2941 15.2068 83.8471 15.1419 83.3044 15.1419H80.9205ZM83.3895 18.9028H81.559V15.7147H83.2725C83.6769 15.7147 84.0068 15.7471 84.2728 15.8119C84.5389 15.8768 84.7517 15.9741 84.9114 16.1037C85.071 16.2334 85.1881 16.3955 85.2519 16.5901C85.3158 16.7846 85.3477 17.0007 85.3477 17.2493C85.3477 17.5087 85.3158 17.7464 85.2519 17.9409C85.1881 18.1463 85.0923 18.3192 84.9433 18.4597C84.7943 18.611 84.5921 18.719 84.3367 18.7947C84.0813 18.8703 83.7726 18.9028 83.3895 18.9028Z" fill="white"/>
<path fill-rule="evenodd" clip-rule="evenodd" d="M41.7591 4.44867L43.0566 0L44.3542 4.44868L44.3541 4.44867V5.93157H41.759V4.44867H41.7591ZM41.759 4.44864L38.0518 5.19009L41.759 5.93153V4.44864ZM48.0614 5.19009L44.3542 4.44864V5.93153L48.0614 5.19009Z" fill="white"/>
<path d="M45.8223 2.75231L41.7591 4.9805L43.5941 6.81549L45.8223 2.75231Z" fill="white"/>
<path d="M45.8223 7.50438L43.5941 3.4412L41.7591 5.27618L45.8223 7.50438Z" fill="white"/>
<path d="M40.2905 2.75233L42.5187 6.81552L44.3537 4.98053L40.2905 2.75233Z" fill="white"/>
<path d="M40.2915 7.73298L44.3547 5.50479L42.5197 3.6698L40.2915 7.73298Z" fill="white"/>
<path d="M43.0563 10.2759L44.3539 5.8272L41.7588 5.8272L43.0563 10.2759Z" fill="white"/>
<line x1="54" y1="5.5" x2="86" y2="5.5" stroke="white"/>
<line y1="5.5" x2="32" y2="5.5" stroke="white"/>
</svg>
