<svg width="29" height="29" viewBox="0 0 29 29" fill="none" xmlns="http://www.w3.org/2000/svg">
<path d="M14.8437 2.61925C18.5819 2.61925 19.0247 2.63348 20.5009 2.70083C21.8659 2.76313 22.6072 2.9912 23.1005 3.18288C23.754 3.43684 24.2204 3.74027 24.7103 4.23015C25.2002 4.72003 25.5036 5.18645 25.7575 5.83988C25.9492 6.33326 26.1773 7.07455 26.2396 8.43948C26.3069 9.91578 26.3212 10.3585 26.3212 14.0967C26.3212 17.8349 26.3069 18.2776 26.2396 19.7539C26.1773 21.1189 25.9492 21.8602 25.7575 22.3535C25.5036 23.007 25.2002 23.4734 24.7103 23.9633C24.2204 24.4531 23.754 24.7566 23.1005 25.0105C22.6072 25.2022 21.8659 25.4303 20.5009 25.4926C19.0249 25.5599 18.5821 25.5742 14.8437 25.5742C11.1053 25.5742 10.6626 25.5599 9.18655 25.4926C7.82156 25.4303 7.08027 25.2022 6.58695 25.0105C5.93347 24.7566 5.46704 24.4531 4.97717 23.9633C4.48729 23.4734 4.18386 23.007 3.92995 22.3535C3.73822 21.8602 3.51015 21.1189 3.44785 19.7539C3.38049 18.2776 3.36627 17.8349 3.36627 14.0967C3.36627 10.3585 3.38049 9.91578 3.44785 8.43953C3.51015 7.07455 3.73822 6.33326 3.92995 5.83988C4.18386 5.18645 4.48729 4.72003 4.97717 4.23015C5.46704 3.74027 5.93347 3.43684 6.58695 3.18288C7.08027 2.9912 7.82156 2.76313 9.18649 2.70083C10.6628 2.63348 11.1055 2.61925 14.8437 2.61925ZM14.8437 0.0966797C11.0415 0.0966797 10.5648 0.112796 9.07157 0.180928C7.58138 0.24895 6.56372 0.48558 5.67316 0.831689C4.75254 1.18947 3.97179 1.66818 3.19349 2.44648C2.41519 3.22478 1.93648 4.00552 1.5787 4.92615C1.23259 5.81671 0.995965 6.83436 0.927943 8.32455C0.859811 9.81775 0.84375 10.2945 0.84375 14.0967C0.84375 17.8989 0.859811 18.3757 0.927943 19.8689C0.995965 21.3591 1.23259 22.3767 1.5787 23.2673C1.93648 24.1878 2.41519 24.9686 3.19349 25.7469C3.97179 26.5252 4.75254 27.0039 5.67316 27.3617C6.56372 27.7078 7.58138 27.9445 9.07157 28.0125C10.5648 28.0806 11.0415 28.0967 14.8437 28.0967C18.6459 28.0967 19.1227 28.0806 20.6159 28.0125C22.1061 27.9445 23.1237 27.7078 24.0143 27.3617C24.9349 27.0039 25.7157 26.5252 26.494 25.7469C27.2723 24.9686 27.751 24.1879 28.1087 23.2673C28.4548 22.3767 28.6915 21.3591 28.7595 19.8689C28.8276 18.3757 28.8438 17.8989 28.8438 14.0967C28.8438 10.2945 28.8276 9.81775 28.7595 8.32455C28.6915 6.83436 28.4548 5.81671 28.1087 4.92615C27.751 4.00552 27.2723 3.22478 26.494 2.44648C25.7157 1.66818 24.9349 1.18947 24.0143 0.831689C23.1237 0.48558 22.1061 0.24895 20.6159 0.180928C19.1227 0.112796 18.6459 0.0966797 14.8437 0.0966797ZM14.8437 6.9075C10.8732 6.9075 7.65451 10.1262 7.65451 14.0967C7.65451 18.0672 10.8732 21.2859 14.8437 21.2859C18.8142 21.2859 22.0329 18.0672 22.0329 14.0967C22.0329 10.1262 18.8142 6.9075 14.8437 6.9075ZM14.8437 18.7634C12.2664 18.7634 10.177 16.674 10.177 14.0967C10.177 11.5194 12.2664 9.43001 14.8437 9.43001C17.421 9.43001 19.5104 11.5194 19.5104 14.0967C19.5104 16.674 17.421 18.7634 14.8437 18.7634ZM23.9969 6.62346C23.9969 7.55131 23.2448 8.30349 22.317 8.30349C21.3891 8.30349 20.6369 7.55131 20.6369 6.62346C20.6369 5.69561 21.3891 4.94349 22.317 4.94349C23.2448 4.94349 23.9969 5.69561 23.9969 6.62346Z" fill="white"/>
</svg>
