<svg width="85" height="36" viewBox="0 0 85 36" fill="none" xmlns="http://www.w3.org/2000/svg">
<path d="M6.11115 26.128C2.76391 26.128 0.0776367 28.1126 0.0776367 30.5508C0.0776367 33.0298 2.76391 35.0139 6.11115 35.0139C9.417 35.0139 12.1033 33.0293 12.1033 30.5508C12.1027 28.1121 9.417 26.128 6.11115 26.128ZM6.11115 33.8983C3.71451 33.8983 1.77194 32.4108 1.77194 30.5508C1.77194 28.7322 3.71397 27.2447 6.11115 27.2447C8.4664 27.2447 10.409 28.7322 10.409 30.5508C10.409 32.4108 8.4664 33.8983 6.11115 33.8983ZM23.5916 26.2935V29.0213C22.7651 28.4845 21.6904 28.1534 20.4507 28.1534C17.8885 28.1534 15.781 29.6829 15.781 31.6245C15.781 33.5259 17.8885 35.0967 20.4507 35.0967C21.6904 35.0967 22.7651 34.7243 23.5916 34.1874V34.9306H25.1617V26.2935H23.5916ZM20.4507 34.1046C18.6736 34.1046 17.2276 32.989 17.2276 31.6245C17.2276 30.2198 18.6742 29.1041 20.4507 29.1041C22.2691 29.1041 23.7151 30.2198 23.7151 31.6245C23.7151 32.989 22.2691 34.1046 20.4507 34.1046ZM53.5114 28.1534C50.9487 28.1534 48.8411 29.6829 48.8411 31.6245C48.8411 33.5259 50.9487 35.0967 53.5114 35.0967C56.1144 35.0967 58.2219 33.5259 58.2219 31.6245C58.2224 29.6829 56.1149 28.1534 53.5114 28.1534ZM53.5114 34.1046C51.7343 34.1046 50.2872 32.989 50.2872 31.6245C50.2872 30.2198 51.7343 29.1041 53.5114 29.1041C55.3298 29.1041 56.7758 30.2198 56.7758 31.6245C56.7764 32.989 55.3298 34.1046 53.5114 34.1046ZM13.1775 34.9312H14.7068V26.2935H13.1775V34.9312ZM60.6604 28.98V26.2521H59.1311V34.8892H60.6604V34.146C61.4869 34.6829 62.603 35.0139 63.8019 35.0139C66.4049 35.0139 68.471 33.4845 68.471 31.5831C68.471 29.6415 66.4049 28.1121 63.8019 28.1121C62.6036 28.1121 61.4869 28.4426 60.6604 28.98ZM63.8019 34.0633C62.0248 34.0633 60.5363 32.9476 60.5363 31.5831C60.5363 30.1784 62.0248 29.0627 63.8019 29.0627C65.5789 29.0627 67.0664 30.1784 67.0664 31.5831C67.0664 32.9476 65.5789 34.0633 63.8019 34.0633ZM69.463 34.8892H71.0337V28.3598H69.463V34.8892ZM72.4797 34.8892H74.0505V26.2935H72.4797V34.8892ZM70.2067 27.7402C70.7032 27.7402 71.1159 27.4097 71.1159 27.0372C71.1159 26.6245 70.7032 26.294 70.2067 26.294C69.7113 26.294 69.3389 26.6245 69.3389 27.0372C69.3389 27.4091 69.7107 27.7402 70.2067 27.7402ZM75.0833 31.6659C75.0833 33.5672 77.1494 35.0967 79.7535 35.0967C81.6536 35.0967 83.2657 34.2691 84.0099 33.0707H82.3978C82.3978 33.0707 81.7777 34.0627 79.7535 34.0627C76.7781 34.0627 76.5293 32.0378 76.5293 32.0378H84.3813C84.4226 31.9131 84.4226 31.79 84.4226 31.6654C84.4226 29.7232 82.3151 28.1948 79.7535 28.1948C77.1494 28.1948 75.0833 29.7232 75.0833 31.6659ZM76.6121 31.0463C76.6121 31.0463 77.0258 29.1863 79.6288 29.1863C82.2743 29.1863 82.8116 31.0463 82.8116 31.0463H76.6121ZM32.4355 30.0548C32.4355 30.0548 32.27 29.0627 30.121 29.0627C27.9721 29.0627 28.0135 30.0951 28.0135 30.0951C28.0135 30.0951 27.7658 30.9227 30.2452 30.9227C32.3533 30.9227 34.378 31.2107 34.378 32.6999C34.378 34.6834 31.3613 35.0553 30.2038 35.0553C26.1542 35.0553 26.0301 32.8649 26.0301 32.8649H27.6417C27.6417 32.8649 27.9721 34.0219 30.1624 34.0219C32.3527 34.0219 32.6418 33.2787 32.6418 32.8649C32.6418 32.4924 32.27 32.0383 30.2452 32.0383C28.179 32.0383 26.3606 31.5418 26.3606 30.0548C26.3606 28.6075 28.9227 28.0288 30.2038 28.0288C34.0056 28.0293 34.0056 30.0548 34.0056 30.0548H32.4355ZM47.8492 30.8399C47.7675 28.8553 46.1554 28.1121 44.6261 28.1121C43.0554 28.1121 41.6921 29.3105 41.6921 29.3105C41.6921 29.3105 40.6179 28.1534 39.2127 28.1121C38.0966 28.0707 37.2287 28.6903 36.8161 28.9386V28.2367H35.4108V34.8898H36.8983V31.171C36.8569 30.5094 37.1046 29.2282 38.8822 29.2282C40.4938 29.2282 40.8242 30.3025 40.907 31.0054V34.8903H42.3944V31.4606C42.4358 30.1375 42.6427 29.1869 44.5428 29.2282C46.1962 29.2696 46.3209 30.633 46.3209 30.9641V34.8903H47.8492V31.0468V30.8399ZM58.7603 3.60377C58.0988 3.23189 57.4787 2.94276 56.7758 2.57088C57.2497 2.29104 57.718 2.00186 58.1805 1.70352C58.4282 1.57883 58.677 1.45523 58.677 1.08335C58.677 0.876993 58.511 0.670091 58.3869 0.62871C58.1805 0.504568 57.85 0.504568 57.6437 0.62871C56.7345 1.00114 55.908 1.538 54.9574 1.95126C46.7336 -0.735223 35.9057 -0.197818 28.5917 3.23297C24.0462 5.34067 22.0622 7.44837 21.4426 10.1343C20.7817 12.8208 22.8065 15.2176 24.8312 16.5821C26.5255 17.6977 28.2612 19.1858 30.4929 18.442C30.5337 18.4007 30.617 18.4007 30.617 18.4007C31.9803 17.5741 38.5512 13.6065 41.9812 11.4988L51.5688 5.7131L54.6683 3.81176C56.8172 4.55552 61.7346 7.15924 61.0742 10.5895C60.7018 12.6558 58.3466 14.0611 56.239 15.0118C53.4286 16.293 46.3209 17.3672 41.2788 16.6648C41.0311 16.6235 40.907 16.4171 40.9897 16.293C43.18 13.7306 45.5353 11.4574 47.8492 9.10196C47.8492 9.10196 48.0566 8.93644 47.8906 8.64732C47.767 8.48179 47.5192 8.39903 47.3537 8.52318C42.6013 11.4574 37.8902 14.433 33.1792 17.3672C32.6832 17.7396 31.9395 18.111 31.9395 18.6898C31.9803 19.3094 32.4768 19.4749 32.6004 19.4749C40.0392 21.3343 49.0072 20.9216 55.8253 18.111C58.842 16.8712 62.5616 14.5566 63.2634 11.0441C63.8433 7.8197 61.4052 5.13322 58.7603 3.60377ZM31.8981 12.0759C30.5757 12.4478 27.187 13.233 25.4927 12.3656C24.9968 12.0759 24.5421 11.4977 24.5841 10.8361C24.7082 8.31518 27.3526 6.41439 29.2537 5.33958C34.7091 2.19845 42.1059 1.33055 49.0491 2.28122C50.2877 2.48758 52.4786 2.98414 52.7263 3.14912C45.5767 7.03401 38.6339 10.1751 31.8981 12.0759ZM54.6689 2.11624C54.6689 2.11624 54.2137 2.36452 54.0487 2.44674C45.66 -0.0747643 34.7085 0.710927 27.683 4.84356C25.9887 5.83561 23.5921 7.98468 23.3025 9.76188C23.0134 11.7454 24.4186 15.0107 34.0889 11.7046C40.9075 9.38999 49.9986 5.09184 57.4379 0.917285C57.6856 0.835068 57.892 0.669545 58.1811 0.835068C58.2224 0.835068 58.1811 0.87645 58.1811 0.87645C57.0241 1.78574 42.9323 9.55552 37.8902 12.2828C37.3943 12.5725 32.8901 14.8866 30.617 15.8372C28.344 16.8293 25.8646 15.7958 23.7571 14.0186C22.5174 13.0271 21.7731 11.2499 22.3519 9.67911C23.5507 6.41439 27.1043 4.26531 29.2532 3.27327C35.989 0.173521 47.0233 -0.36334 54.6689 2.11624ZM47.5612 8.72899C47.5612 8.72899 39.9978 14.0186 36.2373 16.7465C35.1626 17.4494 33.7165 17.9449 32.4769 18.3996C32.4769 18.3996 32.4355 18.4409 32.4355 18.3996C32.3936 18.3996 32.3113 18.3582 32.4769 18.1932C32.6418 18.0282 42.5605 11.746 47.4784 8.72899C47.4784 8.72899 47.5198 8.68707 47.5612 8.72899ZM32.3113 18.9783C32.27 18.937 32.27 18.8542 32.27 18.8128C32.27 18.7714 32.3527 18.7301 32.3527 18.6887C32.6832 18.4823 33.4683 18.4823 33.6752 18.5232C40.907 19.9699 49.6273 19.9699 56.239 17.0765C58.8834 15.9194 62.8094 13.4807 62.8094 9.88547C62.768 9.51304 62.768 9.14171 62.603 8.81067C62.603 8.81067 62.5616 8.68652 62.4783 8.56238C62.5197 8.7279 62.5611 8.93426 62.5611 8.93426C62.9738 11.6207 61.1553 13.5629 58.8001 15.0504C54.9569 17.4064 49.8326 18.4399 44.5842 18.5221C43.0548 18.5221 39.5426 18.4807 38.4271 17.9019C38.1788 17.7778 37.9725 17.5714 37.9311 17.4473C37.8483 17.199 37.9725 16.9926 38.3443 16.5794C40.4105 14.4717 44.4192 11.2064 47.6009 8.85041L47.6837 8.7682C47.6837 8.85041 47.6837 8.9751 47.6423 9.01593C45.2037 11.3305 40.7001 15.5051 40.2036 16.2075C40.0794 16.3724 39.9972 16.7443 40.0794 16.9512C40.2863 17.4059 40.6576 17.6122 41.3191 17.6536C48.1383 18.1083 54.915 17.199 59.5024 14.0998C60.9071 13.1491 62.3531 11.5788 62.1468 9.67748C61.8577 6.41276 58.4271 4.26368 55.7828 3.06473C55.9488 2.94059 56.1966 2.77561 56.361 2.6923C59.13 3.76711 62.4359 5.95757 62.9732 9.18146C63.4284 12.322 60.8254 14.843 58.5518 16.1655C51.485 20.2573 41.526 20.6701 33.0953 18.8934C32.8901 18.8542 32.3936 19.0611 32.3113 18.9783ZM30.2033 17.5317C30.0166 17.7172 29.7641 17.8212 29.5009 17.8208C29.0877 17.8208 28.7572 17.6139 28.7572 17.3661C28.7572 17.077 29.0877 16.8701 29.5009 16.8701C29.6251 16.8701 30.121 16.8293 30.286 16.7879C32.0217 16.3332 33.4269 15.1762 35.0384 14.4319C40.7001 11.2494 50.6177 5.50511 56.2385 2.36398C51.0314 5.50511 42.022 10.5884 40.9892 11.2494C40.08 11.8282 31.4843 16.7051 30.5337 17.242C30.4934 17.2834 30.2452 17.4489 30.2033 17.5317Z" fill="white"/>
</svg>
