<svg width="127" height="53" viewBox="0 0 127 53" fill="none" xmlns="http://www.w3.org/2000/svg">
<path d="M9.08478 39.36C4.04478 39.36 0 42.3783 0 46.0864C0 49.8566 4.04478 52.8741 9.08478 52.8741C14.0625 52.8741 18.1073 49.8558 18.1073 46.0864C18.1064 42.3775 14.0625 39.36 9.08478 39.36ZM9.08478 51.1774C5.47612 51.1774 2.55115 48.9151 2.55115 46.0864C2.55115 43.3207 5.4753 41.0584 9.08478 41.0584C12.6311 41.0584 15.5561 43.3207 15.5561 46.0864C15.5561 48.9151 12.6311 51.1774 9.08478 51.1774ZM35.4054 39.6117V43.7604C34.161 42.9439 32.5427 42.4404 30.6761 42.4404C26.8182 42.4404 23.6449 44.7665 23.6449 47.7194C23.6449 50.611 26.8182 53 30.6761 53C32.5427 53 34.161 52.4336 35.4054 51.6171V52.7474H37.7696V39.6117H35.4054ZM30.6761 51.4913C28.0003 51.4913 25.823 49.7945 25.823 47.7194C25.823 45.5829 28.0012 43.8862 30.6761 43.8862C33.4141 43.8862 35.5915 45.5829 35.5915 47.7194C35.5915 49.7945 33.4141 51.4913 30.6761 51.4913ZM80.4563 42.4404C76.5976 42.4404 73.4242 44.7665 73.4242 47.7194C73.4242 50.611 76.5976 53 80.4563 53C84.3756 53 87.549 50.611 87.549 47.7194C87.5498 44.7665 84.3765 42.4404 80.4563 42.4404ZM80.4563 51.4913C77.7805 51.4913 75.6016 49.7945 75.6016 47.7194C75.6016 45.5829 77.7805 43.8862 80.4563 43.8862C83.1943 43.8862 85.3717 45.5829 85.3717 47.7194C85.3725 49.7945 83.1943 51.4913 80.4563 51.4913ZM19.7247 52.7483H22.0274V39.6117H19.7247V52.7483ZM91.2208 43.6974V39.5488H88.918V52.6845H91.2208V51.5542C92.4652 52.3707 94.1458 52.8741 95.9509 52.8741C99.8703 52.8741 102.981 50.5481 102.981 47.6564C102.981 44.7035 99.8703 42.3775 95.9509 42.3775C94.1466 42.3775 92.4652 42.8801 91.2208 43.6974ZM95.9509 51.4283C93.2751 51.4283 91.0339 49.7316 91.0339 47.6564C91.0339 45.52 93.2751 43.8233 95.9509 43.8233C98.6267 43.8233 100.866 45.52 100.866 47.6564C100.866 49.7316 98.6267 51.4283 95.9509 51.4283ZM104.475 52.6845H106.84V42.7543H104.475V52.6845ZM109.017 52.6845H111.382V39.6117H109.017V52.6845ZM105.595 41.8119C106.342 41.8119 106.964 41.3093 106.964 40.7429C106.964 40.1152 106.342 39.6125 105.595 39.6125C104.849 39.6125 104.288 40.1152 104.288 40.7429C104.288 41.3084 104.848 41.8119 105.595 41.8119ZM112.938 47.7823C112.938 50.6739 116.049 53 119.97 53C122.831 53 125.258 51.7413 126.379 49.9187H123.951C123.951 49.9187 123.018 51.4275 119.97 51.4275C115.489 51.4275 115.115 48.3479 115.115 48.3479H126.938C127 48.1583 127 47.9711 127 47.7815C127 44.8277 123.827 42.5033 119.97 42.5033C116.049 42.5033 112.938 44.8277 112.938 47.7823ZM115.239 46.84C115.239 46.84 115.862 44.0113 119.782 44.0113C123.765 44.0113 124.574 46.84 124.574 46.84H115.239ZM48.7219 45.332C48.7219 45.332 48.4726 43.8233 45.237 43.8233C42.0013 43.8233 42.0636 45.3933 42.0636 45.3933C42.0636 45.3933 41.6906 46.652 45.4239 46.652C48.5981 46.652 51.6468 47.09 51.6468 49.3548C51.6468 52.3715 47.1044 52.9371 45.3616 52.9371C39.2641 52.9371 39.0772 49.6057 39.0772 49.6057H41.5037C41.5037 49.6057 42.0013 51.3654 45.2993 51.3654C48.5973 51.3654 49.0326 50.2351 49.0326 49.6057C49.0326 49.0393 48.4726 48.3487 45.4239 48.3487C42.3128 48.3487 39.5748 47.5935 39.5748 45.332C39.5748 43.131 43.4327 42.2508 45.3616 42.2508C51.0861 42.2516 51.0861 45.332 51.0861 45.332H48.7219ZM71.9306 46.5261C71.8076 43.5078 69.3803 42.3775 67.0775 42.3775C64.7124 42.3775 62.6597 44.2001 62.6597 44.2001C62.6597 44.2001 61.0423 42.4404 58.9265 42.3775C57.2459 42.3145 55.9392 43.2569 55.3178 43.6345V42.5671H53.2019V52.6853H55.4416V47.0296C55.3793 46.0235 55.7523 44.075 58.4289 44.075C60.8554 44.075 61.353 45.7088 61.4776 46.7779V52.6862H63.7172V47.4701C63.7795 45.4579 64.0911 44.0121 66.9521 44.075C69.4417 44.138 69.6295 46.2115 69.6295 46.7149V52.6862H71.9306V46.8408V46.5261ZM88.3598 5.10426C87.3637 4.53869 86.43 4.09898 85.3717 3.53341C86.0852 3.10781 86.7904 2.66802 87.4867 2.21428C87.8597 2.02466 88.2343 1.83668 88.2343 1.27111C88.2343 0.95727 87.9843 0.642604 87.7974 0.579671C87.4867 0.39087 86.9891 0.39087 86.6784 0.579671C85.3094 1.14607 84.0649 1.96255 82.6336 2.59106C70.2509 -1.49465 53.9471 -0.677347 42.9342 4.54034C36.0899 7.74581 33.1026 10.9513 32.1697 15.0362C31.1745 19.1219 34.2233 22.7671 37.272 24.8422C39.8232 26.5389 42.4366 28.8021 45.7969 27.6709C45.8584 27.608 45.9838 27.608 45.9838 27.608C48.0365 26.351 57.9304 20.3168 63.095 17.1113L77.5313 8.31222L82.1983 5.42058C85.434 6.55173 92.8382 10.5116 91.8438 15.7284C91.2831 18.871 87.7367 21.0082 84.5634 22.454C80.3317 24.4025 69.6295 26.0363 62.0375 24.9681C61.6645 24.9051 61.4776 24.5913 61.6022 24.4025C64.9002 20.5056 68.4465 17.0484 71.9306 13.4661C71.9306 13.4661 72.2429 13.2144 71.9929 12.7747C71.8068 12.523 71.4338 12.3971 71.1846 12.5859C64.0288 17.0484 56.9352 21.5738 49.8417 26.0363C49.0949 26.6027 47.975 27.1674 47.975 28.0477C48.0365 28.99 48.7842 29.2418 48.9702 29.2418C60.1709 32.0696 73.6743 31.4419 83.9403 27.1674C88.4827 25.2819 94.0835 21.7618 95.1401 16.4199C96.0132 11.516 92.3422 7.43032 88.3598 5.10426ZM47.9127 17.9891C45.9215 18.5547 40.8192 19.7487 38.2681 18.4296C37.5212 17.9891 36.8367 17.1097 36.8998 16.1036C37.0868 12.2696 41.0684 9.37877 43.9311 7.74416C52.1453 2.967 63.2828 1.64706 73.7374 3.09287C75.6024 3.40671 78.9012 4.16191 79.2742 4.41282C68.5088 10.3211 58.055 15.0983 47.9127 17.9891ZM82.1991 2.84196C82.1991 2.84196 81.5138 3.21956 81.2654 3.3446C68.6343 -0.490202 52.1444 0.704709 41.566 6.98978C39.0149 8.49853 35.4062 11.7669 34.9701 14.4698C34.5348 17.4864 36.6506 22.4524 51.2115 17.4243C61.4784 13.9042 75.1671 7.36738 86.3685 1.01855C86.7415 0.893508 87.0522 0.641775 87.4875 0.893509C87.5498 0.893509 87.4875 0.956444 87.4875 0.956444C85.7455 2.33933 64.5272 14.1559 56.9352 18.3037C56.1884 18.7443 49.4064 22.2636 45.9838 23.7094C42.5612 25.2182 38.828 23.6465 35.6546 20.9436C33.788 19.4357 32.6673 16.7329 33.5388 14.3439C35.3439 9.37877 40.6946 6.11037 43.9303 4.60162C54.0726 -0.112599 70.687 -0.929079 82.1991 2.84196ZM71.4969 12.8989C71.4969 12.8989 60.1086 20.9436 54.4464 25.0923C52.8281 26.1613 50.6508 26.9149 48.7842 27.6063C48.7842 27.6063 48.7219 27.6692 48.7219 27.6063C48.6587 27.6063 48.535 27.5434 48.7842 27.2925C49.0326 27.0416 63.9673 17.4873 71.3723 12.8989C71.3723 12.8989 71.4346 12.8351 71.4969 12.8989ZM48.535 28.4866C48.4726 28.4236 48.4726 28.2978 48.4726 28.2348C48.4726 28.1719 48.5973 28.109 48.5973 28.046C49.0949 27.7322 50.277 27.7322 50.5885 27.7943C61.4776 29.9945 74.608 29.9945 84.5634 25.5941C88.545 23.8344 94.4565 20.1255 94.4565 14.6577C94.3942 14.0913 94.3942 13.5266 94.1458 13.0231C94.1458 13.0231 94.0835 12.8343 93.958 12.6455C94.0203 12.8973 94.0826 13.2111 94.0826 13.2111C94.704 17.2968 91.966 20.2505 88.4196 22.5128C82.6328 26.0959 74.917 27.6676 67.0144 27.7926C64.7116 27.7926 59.4232 27.7297 57.7435 26.8495C57.3697 26.6607 57.059 26.3468 56.9967 26.158C56.8721 25.7804 57.059 25.4666 57.6189 24.8381C60.73 21.6326 66.766 16.6666 71.5568 13.0836L71.6814 12.9585C71.6814 13.0836 71.6814 13.2732 71.6191 13.3353C67.9473 16.8554 61.1661 23.2043 60.4185 24.2725C60.2315 24.5234 60.1078 25.089 60.2315 25.4036C60.5431 26.0951 61.1021 26.4089 62.0982 26.4719C72.3659 27.1633 82.5697 25.7804 89.4771 21.067C91.5922 19.6212 93.7695 17.233 93.4588 14.3414C93.0235 9.37629 87.8581 6.10789 83.8764 4.28447C84.1264 4.09567 84.4994 3.84476 84.747 3.71807C88.9164 5.35268 93.8941 8.68402 94.7032 13.587C95.3885 18.3634 91.4692 22.1973 88.0458 24.2087C77.4051 30.4317 62.4097 31.0594 49.7154 28.3574C49.4064 28.2978 48.6587 28.6124 48.535 28.4866ZM45.3608 26.2864C45.0798 26.5685 44.6995 26.7267 44.3033 26.7261C43.681 26.7261 43.1834 26.4114 43.1834 26.0346C43.1834 25.5949 43.681 25.2803 44.3033 25.2803C44.4902 25.2803 45.237 25.2182 45.4854 25.1552C48.0988 24.4638 50.2147 22.7041 52.6412 21.5721C61.1661 16.7321 76.0992 7.99589 84.5626 3.21874C76.7222 7.99589 63.1565 15.7268 61.6014 16.7321C60.2324 17.6123 47.2897 25.0294 45.8584 25.8458C45.7977 25.9088 45.4239 26.1605 45.3608 26.2864Z" fill="white"/>
</svg>
