<svg width="21" height="24" viewBox="0 0 21 24" fill="none" xmlns="http://www.w3.org/2000/svg">
<path d="M18.75 0.661865H6.75C5.65 0.661865 4.75 1.70937 4.75 2.98966V16.9564C4.75 18.2367 5.65 19.2842 6.75 19.2842H18.75C19.85 19.2842 20.75 18.2367 20.75 16.9564V2.98966C20.75 1.70937 19.85 0.661865 18.75 0.661865ZM10.25 9.3911C10.25 10.3571 9.58 11.1369 8.75 11.1369H7.75V13.4647H6.25V6.48135H8.75C9.58 6.48135 10.25 7.26117 10.25 8.2272V9.3911ZM15.25 11.7189C15.25 12.6849 14.58 13.4647 13.75 13.4647H11.25V6.48135H13.75C14.58 6.48135 15.25 7.26117 15.25 8.2272V11.7189ZM19.25 8.2272H17.75V9.3911H19.25V11.1369H17.75V13.4647H16.25V6.48135H19.25V8.2272ZM7.75 9.3911H8.75V8.2272H7.75V9.3911ZM2.75 5.31746H0.75V21.612C0.75 22.8923 1.65 23.9398 2.75 23.9398H16.75V21.612H2.75V5.31746ZM12.75 11.7189H13.75V8.2272H12.75V11.7189Z" fill="#FFDF00"/>
</svg>
