<svg width="20" height="17" viewBox="0 0 20 17" fill="none" xmlns="http://www.w3.org/2000/svg">
<path d="M20 2.01257C19.251 2.35942 18.4567 2.58713 17.6433 2.68814C18.4893 2.15644 19.14 1.31618 19.4462 0.313501C18.6408 0.813404 17.7596 1.1656 16.8407 1.35488C16.4571 0.926331 15.9933 0.584904 15.4781 0.351822C14.9629 0.118741 14.4074 -0.00101264 13.8461 6.44993e-06C11.581 6.44993e-06 9.74264 1.92101 9.74264 4.29071C9.74264 4.62743 9.77888 4.9556 9.84982 5.26896C6.43921 5.08973 3.41648 3.38212 1.39232 0.785545C1.03888 1.41854 0.837278 2.15643 0.837278 2.94304C0.837278 4.43111 1.56138 5.74474 2.66214 6.5144C2.01042 6.49351 1.37299 6.30944 0.803338 5.97763V6.03235C0.803338 8.11084 2.21786 9.84527 4.09401 10.2403C3.48977 10.4114 2.85622 10.4365 2.24133 10.3137C2.76371 12.0188 4.27954 13.2591 6.07429 13.2952C4.67023 14.4443 2.90125 15.1316 0.978398 15.1316C0.651435 15.1312 0.324763 15.1111 0 15.0715C1.81568 16.2887 3.97292 17 6.28992 17C13.8372 17 17.9636 10.46 17.9636 4.78851C17.9636 4.603 17.9636 4.4175 17.9508 4.23332C18.7538 3.6257 19.4472 2.87378 19.9987 2.01257H20Z" fill="#BAB9B9"/>
</svg>
