<svg width="31" height="26" viewBox="0 0 31 26" fill="none" xmlns="http://www.w3.org/2000/svg">
<path d="M31 3.02183C29.8391 3.54261 28.6079 3.88452 27.3471 4.03618C28.6584 3.23784 29.667 1.97621 30.1417 0.470716C28.8933 1.22131 27.5274 1.75013 26.1032 2.03433C25.5085 1.39087 24.7895 0.878221 23.991 0.528254C23.1925 0.178287 22.3315 -0.00152046 21.4614 9.68444e-06C17.9506 9.68444e-06 15.1011 2.88436 15.1011 6.44241C15.1011 6.94799 15.1573 7.44073 15.2672 7.91124C9.98077 7.64212 5.29555 5.07819 2.15809 1.17948C1.61026 2.12991 1.29778 3.23784 1.29778 4.41892C1.29778 6.65322 2.42014 8.62561 4.12632 9.78124C3.11615 9.74987 2.12814 9.47349 1.24517 8.97529V9.05745C1.24517 12.1783 3.43768 14.7825 6.34572 15.3756C5.40914 15.6326 4.42714 15.6702 3.47407 15.4858C4.28375 18.0459 6.63328 19.9083 9.41514 19.9624C7.23886 21.6878 4.49694 22.7197 1.51652 22.7197C1.00972 22.7192 0.503383 22.6891 0 22.6296C2.8143 24.4571 6.15803 25.5251 9.74938 25.5251C21.4476 25.5251 27.8436 15.7054 27.8436 7.18985C27.8436 6.91131 27.8436 6.63278 27.8238 6.35625C29.0683 5.44392 30.1431 4.31492 30.998 3.02183H31Z" fill="white"/>
</svg>